<svg xmlns="http://www.w3.org/2000/svg" viewBox="0 0 114.63 107.46"><defs><style>.cls-1{fill:#fff;}</style></defs><g id="Layer_2" data-name="Layer 2"><g id="Layer_2-2" data-name="Layer 2"><path class="cls-1" d="M3.36,107.46h47a8.07,8.07,0,0,0,2-.4l19-9.5a3.7,3.7,0,0,0,.87-.63l41.4-41.4a3.36,3.36,0,0,0,0-4.75l-9.5-9.5a3.36,3.36,0,0,0-4.75,0L58,82.68a3.59,3.59,0,0,0-.63.88l-8.59,17.18H3.36a3.36,3.36,0,0,0,0,6.72ZM61.29,90.73l2.91,2.9-5.82,2.91Zm31-32.83L97,62.65,69.87,89.81l-4.75-4.75Zm9.5-9.5,4.75,4.75-4.75,4.75L97,53.15Z"/><path class="cls-1" d="M10.07,53.73H42.71L55.16,66.18a3.35,3.35,0,0,0,5.73-2.37V53.73H71A10.08,10.08,0,0,0,81,43.66V10.07A10.08,10.08,0,0,0,71,0H10.07A10.08,10.08,0,0,0,0,10.07V43.66A10.08,10.08,0,0,0,10.07,53.73ZM6.72,10.07a3.35,3.35,0,0,1,3.35-3.35H71a3.36,3.36,0,0,1,3.36,3.35V43.66A3.36,3.36,0,0,1,71,47H57.54a3.36,3.36,0,0,0-3.36,3.36V55.7L46.48,48a3.38,3.38,0,0,0-2.38-1h-34a3.35,3.35,0,0,1-3.35-3.35Z"/><path class="cls-1" d="M20.15,33.58a6.72,6.72,0,1,0-6.72-6.71A6.73,6.73,0,0,0,20.15,33.58Z"/><path class="cls-1" d="M40.75,33.58A6.72,6.72,0,1,0,34,26.87,6.72,6.72,0,0,0,40.75,33.58Z"/><path class="cls-1" d="M60.89,33.58a6.72,6.72,0,1,0-6.71-6.71A6.72,6.72,0,0,0,60.89,33.58Z"/></g></g></svg>