<svg xmlns="http://www.w3.org/2000/svg" viewBox="0 0 126.14 125.87"><defs><style>.cls-1{fill:#fff;}</style></defs><g id="Layer_2" data-name="Layer 2"><g id="Layer_2-2" data-name="Layer 2"><path class="cls-1" d="M125.8,29.28A25.49,25.49,0,0,0,100.61,8a35.09,35.09,0,0,0-20.88,7L22.78,57.63V77.91L0,102.32l5.81,5.42L30.72,81.07V61.6L84.5,21.27a27,27,0,0,1,16.11-5.37,17.54,17.54,0,0,1,2.89,34.84,16.86,16.86,0,0,0-11.68,7.95L75.66,85.61a12,12,0,0,1-10.22,5.8H52.81L26.35,120.53l5.89,5.34L56.33,99.35h9.11a20,20,0,0,0,17-9.64L98.64,62.79a8.84,8.84,0,0,1,6.17-4.2A25.5,25.5,0,0,0,125.8,29.28Z"/><rect class="cls-1" x="70.47" width="7.95" height="7.95"/><rect class="cls-1" x="54.57" y="11.92" width="7.95" height="7.95"/><rect class="cls-1" x="38.67" y="23.85" width="7.95" height="7.95"/><rect class="cls-1" x="22.78" y="35.77" width="7.95" height="7.95"/><rect class="cls-1" x="86.36" y="27.82" width="7.95" height="7.95"/><rect class="cls-1" x="70.47" y="39.74" width="7.95" height="7.95"/><rect class="cls-1" x="54.57" y="51.66" width="7.95" height="7.95"/><rect class="cls-1" x="38.67" y="63.59" width="7.95" height="7.95"/></g></g></svg>