<svg xmlns="http://www.w3.org/2000/svg" viewBox="0 0 157 116.64"><defs><style>.cls-1,.cls-3{fill:#f5b0ba;}.cls-1{stroke:#fff;stroke-miterlimit:10;stroke-width:8.42px;}.cls-2{fill:#fff;}</style></defs><g id="Layer_2" data-name="Layer 2"><g id="Layer_2-2" data-name="Layer 2"><rect class="cls-1" x="12.66" y="4.21" width="131.67" height="91.16" rx="3.55"/><rect class="cls-2" y="103.47" width="157" height="13.17" rx="3.87"/><path class="cls-2" d="M121.22,56.15,96.79,39.46a.37.37,0,0,0-.57.37l5.32,29.11a.37.37,0,0,0,.65.16l5.93-7.69,5.61,8.65a1.57,1.57,0,0,0,2.17.46l.93-.61a1.56,1.56,0,0,0,.46-2.16l-5.62-8.64,9.43-2.29A.37.37,0,0,0,121.22,56.15Z"/><path class="cls-3" d="M147,110.06a3.59,3.59,0,1,1-3.59-3.59A3.59,3.59,0,0,1,147,110.06Z"/><path class="cls-3" d="M134.63,110.06a3.59,3.59,0,1,1-3.59-3.59A3.59,3.59,0,0,1,134.63,110.06Z"/></g></g></svg>