<svg xmlns="http://www.w3.org/2000/svg" viewBox="0 0 137.32 112.55"><defs><style>.cls-1{fill:#fff;}.cls-2{fill:#f5b0ba;}</style></defs><g id="Layer_2" data-name="Layer 2"><g id="Layer_2-2" data-name="Layer 2"><path class="cls-1" d="M125.23,23.07v89.09c6.49-2.25,11.09-14.06,12.09-16.85V23.09Z"/><path class="cls-1" d="M0,112.55H122.85V0H0Zm57.06-9.21H8.32V99.47H57.06Zm0-11.3H8.32V88.18H57.06Zm0-11.29H8.32V76.88H57.06Zm0-11.3H8.32V65.59H57.06Zm0-11.29H8.32V54.29H57.06Zm57.07,45.18H65.39V99.47h48.74Zm0-11.3H65.39V88.18h48.74Zm0-11.29H65.39V76.88h48.74Zm0-11.3H65.39V65.59h48.74Zm0-11.29H65.39V54.29h48.74ZM8.12,41.42H114.33v4.35H8.12Z"/><rect class="cls-2" x="8.32" y="11.73" width="72.12" height="14.91"/></g></g></svg>