<svg xmlns="http://www.w3.org/2000/svg" viewBox="0 0 142.47 93.25"><defs><style>.cls-1{fill:#fff;}.cls-2{fill:none;stroke:#f5b0ba;stroke-miterlimit:10;stroke-width:6.61px;}.cls-3{fill:#f5b0ba;}</style></defs><g id="Layer_2" data-name="Layer 2"><g id="Layer_2-2" data-name="Layer 2"><rect class="cls-1" y="22.49" width="142.47" height="58.72" rx="6.25"/><circle class="cls-2" cx="30.14" cy="51.85" r="17.81"/><circle class="cls-2" cx="112.33" cy="51.85" r="17.81"/><rect class="cls-3" x="58" y="44.39" width="26.47" height="14.92" rx="1.63"/><rect class="cls-1" x="29.36" y="14.55" width="9.3" height="4.33"/><rect class="cls-1" x="43.6" y="14.55" width="9.3" height="4.33"/><rect class="cls-1" x="57.85" y="14.55" width="9.3" height="4.33"/><rect class="cls-1" x="14.44" y="84.58" width="7.7" height="8.66"/><rect class="cls-1" x="120.33" y="84.58" width="7.7" height="8.66"/><circle class="cls-1" cx="64.92" cy="51.85" r="2.65"/><circle class="cls-1" cx="77.55" cy="51.85" r="2.65"/><path class="cls-1" d="M20,18.88V7H122.45V18.88h7V3.48A3.48,3.48,0,0,0,125.93,0H16.54a3.48,3.48,0,0,0-3.48,3.48v15.4Z"/></g></g></svg>
