<?xml version="1.0" encoding="utf-8"?>
<!-- Generator: Adobe Illustrator 23.0.4, SVG Export Plug-In . SVG Version: 6.00 Build 0)  -->
<svg version="1.1" id="Layer_1" xmlns="http://www.w3.org/2000/svg" xmlns:xlink="http://www.w3.org/1999/xlink" x="0px" y="0px"
	 viewBox="0 0 230.9 295.9" style="enable-background:new 0 0 230.9 295.9;" xml:space="preserve">
<style type="text/css">
	.st0{fill:#FFFFFF;}
	.st1{fill:#FFFFFF;stroke:#221F1F;stroke-miterlimit:10;}
	.st2{fill:#231F20;}
	.st3{fill:#231F20;stroke:#221F1F;stroke-miterlimit:10;}
	.st4{fill:#E6AA76;}
	.st5{fill:#F7B0B9;}
	.st6{fill:#34947A;}
	.st7{fill:#F37548;}
</style>
<g>
	<g>
		<g>
			<g>
				<path class="st2" d="M168.7,118.5l-0.3-0.2c-3.6-2.1-7.5-4.2-11.4-6.2l0.4-0.9l-0.2,0.4l0.3-0.4c3.7,2,7.6,4,11.1,6
					c3.8-3.5,6.1-9.1,6.1-15.1c0-14.6-6.8-23.9-26-43c-13.3-13.2-24.3-19.9-34.1-20.6c3,1,5.2,2.8,6.5,4.1
					c22.6,22.5,26.3,31.4,26.3,43.8c0,6.3-2.7,12.8-7,16.4l-0.7-0.8c4-3.5,6.6-9.6,6.6-15.7c0-14.6-6.8-23.9-26-43
					c-9.3-9.3-18.9-1.7-22.6,1.9l-0.8-0.7c2.8-3.8,7.2-6.2,12.6-7c11.3-1.5,23.9,5,39.6,20.7c22.6,22.5,26.3,31.4,26.3,43.8
					c0,6.4-2.5,12.4-6.7,16L168.7,118.5z"/>
			</g>
			<g>
				<path class="st2" d="M145.1,274.3c-9.7,0-18.6-4.6-31.8-16.1l-1.2-1.1l1.6,0.2c2.5,0.3,5,0.2,7.7-0.1
					c10.2-1.4,16.2-8.8,16.2-19.9c0-11.8-7.4-21.7-24.8-33.1l0.5-0.9c33.9,17,53.6,30.6,53.6,49.7c0,11.4-6.6,19.4-17.1,20.9
					C148.2,274.2,146.6,274.3,145.1,274.3z M115.1,258.5c14.3,12.2,23.4,16,34.4,14.5c10-1.4,16.2-9,16.2-19.9
					c0-17.4-16.9-30.2-46.4-45.5c13.4,9.9,19.2,19,19.2,29.7c0,11.4-6.6,19.4-17.1,20.9C119.3,258.5,117.2,258.6,115.1,258.5z"/>
			</g>
			<g>
				<path class="st2" d="M54.9,284.9l-25.9-14.5C10.3,260.6,0,244.5,0,225c0-27.4,19.2-50.5,46.9-56.6
					c-29.6-18.8-41.7-38.6-41.7-67.9c0-22.9,9.7-45.5,27.4-63.6C51.4,17.6,77,5.3,106.7,1.3c22.5-3,42.2-0.6,57,7.1l0.2,0.1l0.8,0.4
					c0.6,0.3,1.1,0.6,1.6,0.9l28.3,15.8l-1.2,0.5l-0.2-0.1c-14.8-8.3-34.9-11-58.1-7.9c-29.5,4-54.9,16.2-73.5,35.3
					c-17.5,17.9-27.1,40.2-27.1,62.9c0,29.3,12.2,48.9,42.3,67.7l1.1,0.7l-1.2,0.2c-27.9,5.5-47.3,28.5-47.3,55.9
					c0,18.2,9.3,33.6,26.1,43.3L54.9,284.9z M124.8,1c-5.8,0-11.8,0.4-18,1.3c-29.5,4-54.9,16.2-73.5,35.3
					C15.8,55.5,6.2,77.8,6.2,100.5c0,29.3,12.2,48.9,42.3,67.7l1.1,0.7l-1.2,0.2C20.5,174.7,1,197.6,1,225
					c0,19.1,10.1,34.9,28.4,44.5l16.8,9.4c-11.7-9.7-18-23-18-38.2c0-27.4,19.2-50.5,46.9-56.6c-29.6-18.8-41.7-38.6-41.7-67.9
					c0-22.9,9.7-45.5,27.4-63.6C79.6,33.4,105.2,21,134.9,17c18.4-2.5,34.9-1.3,48.4,3.4l-17.5-9.8c-0.5-0.3-1.1-0.6-1.6-0.9
					l-0.8-0.4C152.7,3.8,139.6,1,124.8,1z"/>
			</g>
			<g>
				
					<rect x="54.9" y="284.2" transform="matrix(0.4878 -0.873 0.873 0.4878 -220.0608 194.1288)" class="st2" width="1" height="0.7"/>
			</g>
			<g>
				<path class="st2" d="M57.1,286.1l-1.1-0.6c-0.2-0.1-0.4-0.2-0.5-0.3h0l0,0l0.5-0.9c0,0,0,0,0,0l0.5,0.3c0.2,0.1,0.4,0.2,0.6,0.3
					l0.4,0.2L57.1,286.1z"/>
			</g>
		</g>
		<g>
			<path class="st2" d="M102.8,295.9c-17.9,0-33.6-3.4-46.2-10.1c-18.3-9.8-28.4-25.8-28.4-45.1c0-27.4,19.2-50.5,46.9-56.6
				c-29.6-18.8-41.7-38.6-41.7-67.9c0-22.9,9.7-45.5,27.4-63.6C79.6,33.4,105.2,21,134.9,17c23.4-3.2,43.7-0.4,58.7,8
				c16.5,9.2,25.5,24.7,25.5,43.6c0,27.3-20,47.8-40.1,54.5c17.8,10.5,29.9,20.5,38.2,31.6c9.2,12.3,13.7,26.2,13.7,42.4
				c0,48-44.7,88.9-106.3,97.3C117,295.4,109.8,295.9,102.8,295.9z M153.1,16.8c-5.8,0-11.8,0.4-18.1,1.3
				c-29.5,4-54.9,16.2-73.5,35.3c-17.5,17.9-27.1,40.2-27.1,62.9c0,29.3,12.2,48.9,42.3,67.7l1.1,0.7l-1.2,0.2
				c-27.9,5.5-47.3,28.5-47.3,55.9c0,18.9,9.9,34.6,27.9,44.2c17.2,9.2,40.4,12.1,67.3,8.4c61.1-8.3,105.5-48.8,105.5-96.3
				c0-30.7-15.2-52.1-52.4-73.7l-1-0.6l1.1-0.3c20.1-6.1,40.5-26.6,40.5-53.8c0-18.6-8.9-33.7-25-42.8
				C182.3,19.8,168.7,16.8,153.1,16.8z M145.1,274.3c-9.7,0-18.6-4.6-31.8-16.1l0,0c-4.7-4.1-10.1-9.2-17-16
				c-13.7-13.6-19.8-21.8-19.8-34.3c0-8.4,4.1-15.5,7.7-19.1l0.3-0.3l0.3,0.2c5,3,10.9,6.1,18.3,9.7c3.4,1.6,6.8,3.3,10.1,5
				c33.9,17,53.6,30.6,53.6,49.7c0,11.4-6.6,19.4-17.1,20.9C148.2,274.2,146.6,274.3,145.1,274.3z M84.7,189.8
				c-3.3,3.5-7.1,10.3-7.1,18.1c0,12.2,5.7,19.9,19.5,33.6c6.8,6.8,12.2,11.9,16.9,16c14.9,13,24.3,17.1,35.6,15.5
				c10-1.4,16.2-9,16.2-19.9c0-18.6-19.4-32-53-48.8c-3.3-1.6-6.7-3.3-10.1-5C95.5,195.9,89.6,192.7,84.7,189.8z M168.7,118.5
				l-0.3-0.2c-3.6-2.1-7.5-4.2-11.4-6.2c-12.7-6.4-23-12.1-31.4-17.4c-22.7-14.2-32-25.4-32-38.5c0-4.5,1.2-8.5,3.5-11.6
				c2.8-3.8,7.2-6.2,12.6-7c11.3-1.5,23.9,5,39.6,20.7c22.6,22.5,26.3,31.4,26.3,43.8c0,6.4-2.5,12.4-6.7,16L168.7,118.5z
				 M109.8,38.3l0.1,0.5c-5.2,0.7-9.3,3-11.9,6.6c-2.2,2.9-3.3,6.7-3.3,11c0,12.7,9.1,23.6,31.5,37.6c8.4,5.3,18.6,10.9,31.3,17.3
				c3.8,2,7.6,4,11.2,6c3.8-3.5,6.1-9.1,6.1-15.1c0-14.6-6.8-23.9-26-43c-15.5-15.4-27.8-21.9-38.8-20.4L109.8,38.3z"/>
		</g>
	</g>
</g>
</svg>
