<?xml version="1.0" encoding="utf-8"?>
<!-- Generator: Adobe Illustrator 23.0.4, SVG Export Plug-In . SVG Version: 6.00 Build 0)  -->
<svg version="1.1" id="Layer_1" xmlns="http://www.w3.org/2000/svg" xmlns:xlink="http://www.w3.org/1999/xlink" x="0px" y="0px"
	 viewBox="0 0 280.5 84.7" style="enable-background:new 0 0 280.5 84.7;" xml:space="preserve">
<style type="text/css">
	.st0{fill:#FFFFFF;}
	.st1{fill:#FFFFFF;stroke:#221F1F;stroke-miterlimit:10;}
	.st2{fill:#231F20;}
	.st3{fill:#231F20;stroke:#221F1F;stroke-miterlimit:10;}
	.st4{fill:#E6AA76;}
	.st5{fill:#F7B0B9;}
	.st6{fill:#34947A;}
	.st7{fill:#F37548;}
</style>
<g>
	<g>
		<path class="st0" d="M11,47.3c0.7,2.4,1.9,4.7,3.2,6.1c1.8,1.9,3.1,2.4,4.8,2.4c2,0,3.4-0.8,4.7-1.9c0.4-0.4,1.6,0.6,1.4,1
			c-2.1,4.9-7.5,8-12.7,7.9C5.3,62.7-0.1,57.7,0,50.2c0.1-7.7,6-12.7,14.6-12.6c7.1,0.1,11,3.6,10.9,8.2c0,0.4,0,0.9-0.1,1.2
			c-0.1,0.2-0.2,0.3-0.5,0.3C21,47.5,15.5,47.5,11,47.3z M15.5,41.9c0-1.8-0.7-2.8-2.1-2.8c-1.5,0-3,1.3-3,4.2c0,1,0.1,2,0.3,3
			l1.5-0.2C14.5,45.9,15.5,44.3,15.5,41.9z"/>
		<path class="st0" d="M29.3,61.2c-0.1-0.9,0-1,0.3-1.1l1.6-0.5c0.5-0.1,0.6-0.2,0.5-0.7l-1.2-12.5c0-0.5-0.1-0.5-0.6-0.6l-1.6-0.1
			c-0.3,0-0.4-0.1-0.5-0.9c-0.1-0.7,0-0.8,0.3-0.9c3.8-1.9,7.8-4.7,11.3-7.7c0.1-0.1,0.2-0.2,0.4-0.2c0.3,0,1.3,0.3,1.3,0.6
			c0.1,0.8,0,4.1,0.6,10l1.1,11.4c0,0.5,0.1,0.6,0.6,0.6l1.7,0.2c0.3,0,0.4,0.2,0.5,1c0.1,0.9,0,1-0.3,1c-1.1,0.1-4.2,0.1-7.7,0.4
			s-6.6,1-7.7,1.1C29.5,62.2,29.4,62.1,29.3,61.2z M29.6,29.2c-0.3-3.1,1.8-5.7,5-6c3.2-0.3,5.7,1.9,6,5c0.3,3.1-1.8,5.7-5,6
			C32.4,34.5,29.8,32.3,29.6,29.2z"/>
		<path class="st0" d="M75.4,56.6c0.9,4.5-3.2,10.1-14.1,12.2c-8.6,1.7-12,0.8-12.6-1.9c-0.4-1.9,1.8-2.8,4.8-4.5
			c-2.8-0.7-4.9-2.5-5.5-5.6c-0.5-2.7,1.9-3.9,5.4-6.5c-3.2-0.7-6.1-2.7-6.8-6.2c-1-5.1,3.4-9.3,10.5-10.7c1.6-0.3,3.6-0.3,5.4,0
			c3.2-0.8,6.2-1.5,7.5-1.7c0.7-0.1,0.8-0.1,0.9,0.6c0.3,1.6,0.3,2.5-0.3,2.6c-0.9,0.2-2.4,0.3-4,0.5c1.2,1,2.1,2.4,2.5,4.1
			c1,5.1-3.4,9.5-10.5,10.9c-1.1,0.2-2.2,0.3-3.4,0.2c-0.8,0.4-1.1,1.1-1,1.8c0.2,1,1.1,1.3,4.5,0.7l4.2-0.8
			C69.9,51,74.6,52.6,75.4,56.6z M54.1,37.8c1.1,5.5,5.2,10.9,6.8,10.6c0.8-0.2,1.2-0.6,0.9-2.3c-1.1-5.5-5.2-10.9-6.8-10.6
			C54.1,35.7,53.7,36.1,54.1,37.8z M69.2,62.9c-0.3-1.4-1.6-2.1-7.7-0.9l-2.6,0.5c-1.1,0.2-2.2,0.3-3.3,0.3
			c-0.4,0.5-0.5,1.2-0.4,1.7c0.4,2,3.5,3,8.1,2.1C67.5,65.8,69.4,64.2,69.2,62.9z"/>
		<path class="st0" d="M108.2,45.4c0.2,0.8,0.2,1-0.1,1.1c-1.1,0.3-4.2,0.7-7.5,1.6c-3.4,0.9-6,1.9-7.1,2.2c-0.3,0.1-0.4,0-0.6-0.9
			c-0.2-0.8-0.1-1,0.1-1.1l1.2-0.7c0.4-0.3,0.5-0.3,0.4-0.8l-2.4-9.1c-1.1-4.3-2.5-5.6-5.7-4.8c-0.3,0.1-0.8,0.3-1,0.4l3.9,14.8
			c0.1,0.5,0.2,0.5,0.7,0.5l1.3,0c0.3,0,0.4,0.1,0.6,0.9c0.2,0.8,0.2,1-0.1,1.1c-1.1,0.3-3.8,0.7-7.2,1.5c-3.4,0.9-6.4,2-7.4,2.3
			c-0.3,0.1-0.4,0-0.6-0.9c-0.2-0.8-0.2-1,0.1-1.1l1.5-0.7c0.4-0.2,0.5-0.3,0.4-0.8l-6.3-23.9c-0.1-0.5-0.2-0.5-0.7-0.5L70,26.8
			c-0.3,0-0.4,0-0.6-0.8c-0.2-0.7-0.1-0.8,0.1-1c3.4-2.5,6.9-5.9,10-9.4c0.1-0.1,0.2-0.2,0.3-0.2c0.3-0.1,1.3,0.1,1.4,0.4
			c0.2,0.8,0.7,4,2.2,9.7l1.7,6.4c0.7-2.9,3-5.9,6.7-6.9c4.9-1.3,8.6,0.9,10,5.9l3.4,13.2c0.1,0.5,0.2,0.5,0.7,0.5l1.7-0.1
			C107.9,44.4,108,44.5,108.2,45.4z"/>
		<path class="st0" d="M116.8,22.1l2.2,9.2c1,4.3,2.5,5.1,4.5,4.7c0.6-0.1,0.9-0.5,1.1-0.6c0.5-0.1,1.5,0.4,1.4,0.9
			c-0.5,3.2-3,6.9-7.4,8c-4.9,1.2-8.2-1.3-9.4-6.4l-3-12.8c-0.1-0.5-0.2-0.5-0.7-0.5l-1.7,0.2c-0.3,0-0.4,0-0.6-0.8
			c-0.2-0.8-0.1-1,0.1-1.1c4.6-2.3,6.9-4.6,9.2-8.5c0.2-0.3,0.2-0.5,1-0.6c0.7-0.2,0.9-0.2,1,0.2c0.5,1.3,1.1,3.3,1.7,5.4l5.3-1.3
			c0.5-0.1,0.7,0.1,1,1.3c0.3,1.3,0.1,1.4-0.3,1.6C120.4,21.3,118.4,21.8,116.8,22.1z"/>
		<path class="st0" d="M158.2,33c0.1,0.8,0.1,0.9-0.2,1c-2.7,1.1-6.4,2.6-9.7,4.3c-0.4,0.2-1.5,0.1-1.8-0.4
			c-0.7-1.5-1.4-3.3-1.7-4.5c-1,3.9-3.4,6.1-6.7,6.7c-4.9,0.9-10.7-3.1-12-11.1c-1.4-8.2,3-13,10.8-14.4c1.3-0.2,2.8-0.3,4.3-0.2
			l-1.2-7c-0.1-0.5-0.2-0.6-0.7-0.6l-1.7-0.1c-0.3,0-0.4-0.1-0.6-0.9s-0.1-0.9,0.2-1c3.4-1.3,8.1-3.2,11.2-4.7
			c0.2-0.1,0.4-0.2,0.5-0.2c0.3-0.1,1.3,0.2,1.4,0.5c0.1,0.8,0.3,4.1,1.3,9.9l3.7,21.1c0.1,0.5,0.2,0.5,0.7,0.6l1.7,0.1
			C157.9,32.1,158,32.2,158.2,33z M143.8,33c0.2,0,0.4-0.1,0.5-0.3l-1-5.6c-0.7-4.2-3.5-9-5.3-10.3c-0.6-0.4-1.2-0.6-1.8-0.5
			c-1,0.2-1.5,1.2-1.2,3c0.8,4.4,4.6,11.2,7.6,13.3C143.1,33,143.5,33.1,143.8,33z"/>
		<path class="st0" d="M172,29.4c-1.2,3.9-3.9,6.4-7.4,6.7c-3.7,0.3-6.5-2.4-6.8-6.2c-0.2-2.9,0.5-4.7,2.9-6.2
			c2.1-1.4,5.6-2.7,10.1-4.1l-0.1-1.5c-0.3-3.4-1.5-5.5-3.3-5.3c-0.5,0-0.7,0.2-0.7,0.8l-0.1,2.3c-0.2,3.5-2.1,5.3-4.7,5.5
			c-1.5,0.1-2.9-0.7-3-2.4c-0.3-3.1,5.3-8.2,12.6-8.9c6.5-0.5,9.8,1.8,10.2,6.4l0.7,8.8c0.3,3.8,1.1,3.9,2.3,2.9
			c0.1-0.1,0.2-0.2,0.3-0.2c0.4,0,1.2,1,1.3,1.2c0,0.2-0.2,0.4-0.4,0.8l-0.2,0.2c-2.6,3.1-4.6,4.5-6.9,4.7
			C175.7,35.2,173.5,33.5,172,29.4z M171.6,28.7l-0.3-3.4c-0.1-1-0.6-1.8-1.2-2.3c-0.7-0.6-1.5-0.8-1.9-0.8c-1,0.1-1.3,0.7-1.2,2.1
			c0.2,2.7,2.2,4.9,3.8,4.7C171.2,29.1,171.4,28.9,171.6,28.7z"/>
		<path class="st0" d="M215.5,9.2c0.3,0,0.4,0.1,0.4,1c0,0.9-0.1,0.9-0.4,1.1l-2.2,1c-1,0.4-1.3,0.9-3.9,5.9l-7.1,13.5l-2.8,5.6
			c-2.5,4.9-4.6,7.4-8.5,7.4c-3,0-5.2-1.9-5.2-4.9s2.4-5.1,5.3-5.2c1.8,0,3.4,0.7,4.8,1.8l1.7-2.5l-11-21.5
			c-0.2-0.5-0.2-0.6-0.7-0.7l-1.5-0.3c-0.3,0-0.4-0.2-0.4-1.1c0-0.9,0.1-1,0.4-1c1.1,0,4.2,0.3,7.7,0.3c2.5,0,8.4-0.4,9.5-0.4
			c0.3,0,0.4,0.1,0.4,1c0,0.9-0.1,1-0.4,1.1l-2.8,0.3c-0.5,0.1-0.5,0.2-0.3,0.7l5.4,10.8l1.7-4.8c1.7-5.1,1.6-5.5,0.2-6l-2.8-0.9
			c-0.3-0.1-0.4-0.1-0.4-1c0-0.9,0.1-1,0.4-1c1.1,0,4.2,0.3,6.7,0.3C212,9.5,214.4,9.2,215.5,9.2L215.5,9.2z"/>
		<path class="st0" d="M216.3,25.3c0.1-0.4,0.2-0.5,1.1-0.4c0.9,0.1,1,0.2,1.2,0.5c0.8,2.4,1.5,4.3,2.2,5.7s1.8,1.9,3.2,2
			c2.1,0.1,3.4-0.9,3.5-2.6c0.1-1.7-0.8-2.9-4.1-4.1c-5.7-2-7-4.8-6.8-8.9c0.3-4.7,4.7-8.3,12.5-7.9c1.7,0.1,3.5,0.4,5.3,0.7
			c0.9,0.2,1,0.3,1,1.3l-0.3,5.7c0,0.4-0.1,0.5-1,0.4c-0.9-0.1-1-0.2-1.2-0.5l-1.3-3.9c-0.4-1.2-1.2-1.9-2.8-2
			c-1.6-0.1-2.9,0.5-3,2.3c-0.1,1.6,0.6,2.4,3.8,3.8c5.3,2.2,6.9,5.1,6.7,8.8c-0.3,5.6-4.9,9.2-12.6,8.8c-2.8-0.2-4.8-0.6-7.3-1.5
			c-0.9-0.3-1-0.4-1-1.4C215.5,30.2,215.9,27.5,216.3,25.3L216.3,25.3z"/>
	</g>
	<g>
		<path class="st0" d="M126.4,74.2c-2.2,3.5-5.5,5.2-8.9,4.6c-3.6-0.7-5.6-4-4.9-7.7c0.5-2.9,1.7-4.4,4.4-5.2
			c2.4-0.8,6.2-1.2,10.8-1.4l0.3-1.5c0.6-3.4-0.1-5.7-1.8-6c-0.5-0.1-0.7,0-0.9,0.6l-0.7,2.2c-1.1,3.3-3.3,4.6-6,4.1
			c-1.5-0.3-2.6-1.4-2.3-3.1c0.5-3,7.2-6.6,14.4-5.3c6.4,1.2,9,4.2,8.2,8.8l-1.6,8.7c-0.7,3.8,0.1,4,1.5,3.4
			c0.2-0.1,0.2-0.1,0.3-0.1c0.4,0.1,0.9,1.2,0.9,1.5c0,0.2-0.3,0.4-0.6,0.6l-0.2,0.2c-3.3,2.3-5.6,3.1-7.9,2.7
			C128.5,80.7,126.9,78.5,126.4,74.2z M126.2,73.4l0.6-3.3c0.2-1-0.1-1.9-0.6-2.5c-0.5-0.7-1.2-1.1-1.7-1.2
			c-0.9-0.2-1.5,0.3-1.7,1.7c-0.5,2.6,0.9,5.3,2.5,5.6C125.7,73.7,126,73.5,126.2,73.4z"/>
		<path class="st0" d="M188.8,60.5c0.3,0,0.4,0.2,0.3,1c0,0.9-0.1,0.9-0.4,1l-2,0.9c-0.9,0.4-1.4,0.7-4.4,5.7l-3.8,6.4
			c-1.1,1.8-4,6.5-5.1,8.5c-0.3,0.6-0.6,0.7-1.6,0.7c-1,0-1.3-0.2-1.5-0.8c-0.8-2-2.8-6.8-3.8-8.9l-2.2-4.6l-3,4.5
			c-1.2,1.8-4,6.5-5.1,8.5c-0.3,0.6-0.6,0.7-1.6,0.7c-1,0-1.2-0.2-1.5-0.8c-0.8-2-2.9-6.8-3.8-8.9l-5.6-12.7
			c-0.2-0.5-0.2-0.6-0.7-0.7l-1.5-0.3c-0.3-0.1-0.4-0.2-0.3-1.1c0-0.9,0.1-1,0.4-1c1.1,0,4.2,0.5,7.7,0.7c2.5,0.1,7.5,0,8.6,0
			c1.1,0,4.7,0.5,8.2,0.7c2.5,0.1,8.1,0,9.2,0.1c0.3,0,0.4,0.2,0.3,1c0,0.9-0.1,1-0.4,1l-2.4,0.2c-0.5,0-0.6,0.2-0.4,0.7l4.2,9.7
			l1.3-3.5c1.9-5.1,1.7-5.3,0.3-6l-1.9-1c-0.3-0.2-0.4-0.2-0.3-1c0-0.9,0.1-1,0.4-1c1.1,0,3.8,0.5,6.3,0.6
			C185.5,60.7,187.7,60.4,188.8,60.5L188.8,60.5z M162.4,66l-1.7-3.7c-0.2-0.5-0.3-0.6-0.8-0.7l-1.9-0.4l-1.9,0.2
			c-0.5,0-0.5,0.2-0.3,0.7L160,72l1.5-3.7C161.8,67.6,162.1,66.8,162.4,66z"/>
		<path class="st0" d="M199.1,68.2c0.9,2.3,2.4,4.5,3.9,5.7c2,1.6,3.3,2,5,1.8c2-0.2,3.3-1.1,4.4-2.4c0.4-0.4,1.7,0.4,1.5,0.9
			c-1.5,5-6.6,8.8-11.7,9.3c-7.1,0.7-13-3.7-13.7-11.2c-0.7-7.7,4.6-13.3,13.1-14.1c7.1-0.7,11.3,2.4,11.7,7c0,0.4,0.1,0.9,0,1.2
			c0,0.2-0.2,0.4-0.5,0.4C209,67.3,203.6,67.9,199.1,68.2z M203,62.3c-0.2-1.8-1-2.7-2.4-2.6c-1.5,0.1-2.8,1.6-2.6,4.5
			c0.1,1,0.3,2,0.6,3l1.5-0.3C202.4,66.4,203.2,64.7,203,62.3z"/>
		<path class="st0" d="M226.7,64.8c1.1,2.3,2.7,4.3,4.2,5.5c2.1,1.5,3.4,1.8,5.1,1.6c1.9-0.3,3.2-1.3,4.3-2.6
			c0.4-0.4,1.7,0.3,1.6,0.8c-1.2,5.1-6.1,9.1-11.2,9.9c-7.1,1-13.2-3-14.3-10.5c-1.1-7.6,3.8-13.6,12.3-14.8
			c7.1-1.1,11.4,1.8,12.1,6.3c0.1,0.4,0.1,0.9,0.1,1.2c0,0.2-0.2,0.4-0.5,0.4C236.6,63.3,231.2,64.2,226.7,64.8z M230.3,58.7
			c-0.3-1.8-1.2-2.6-2.5-2.4c-1.5,0.2-2.7,1.8-2.3,4.6c0.1,0.9,0.4,2,0.8,2.9l1.5-0.4C229.9,62.8,230.7,61.1,230.3,58.7z"/>
		<path class="st0" d="M280.5,72.2c0.1,0.9,0,1-0.3,1c-1.1,0.1-5,0.2-9.4,0.6c-4,0.4-7.8,1.1-8.9,1.3c-0.3,0-0.4-0.1-0.5-1
			s0-1,0.3-1.1l1.5-0.4c0.5-0.1,0.4-0.3,0-0.7l-6.2-7.2l0.8,7.7c0,0.5,0.2,0.6,0.6,0.6l1.4,0.2c0.3,0,0.4,0.2,0.5,1
			c0.1,0.9,0,1-0.3,1c-1.1,0.1-4,0.1-7.5,0.4s-6.6,1-7.7,1.1c-0.3,0-0.4-0.1-0.5-1c-0.1-0.9,0-1,0.3-1.1l1.6-0.5
			c0.5-0.1,0.6-0.2,0.5-0.7l-2.5-24.6c0-0.5-0.1-0.5-0.6-0.6l-1.7-0.1c-0.3,0-0.4-0.1-0.5-0.9c-0.1-0.7,0-0.8,0.3-0.9
			c3.8-1.9,7.7-4.8,11.3-7.8c0.1-0.1,0.2-0.2,0.4-0.2c0.3,0,1.3,0.3,1.3,0.6c0.1,0.8,0,4.1,0.6,10l1.4,13.6l3.2-3.1
			c6.1-5.9,6.1-6.4,5.2-6.6l-3.4-0.6c-0.3-0.1-0.4-0.2-0.5-1c-0.1-0.9,0-1,0.3-1c1.1-0.1,5-0.2,7.6-0.4c2.5-0.3,6.3-1,7.4-1.1
			c0.3,0,0.4,0.1,0.5,1s0,1-0.3,1.1l-3.6,1.5c-0.9,0.4-2.1,1.1-7.9,6.6l-0.1,0.2l12.2,11.4c0.4,0.4,0.7,0.5,1.2,0.6l1.5,0.1
			C280.3,71.2,280.4,71.4,280.5,72.2z"/>
	</g>
</g>
</svg>
